<?xml version="1.0" encoding="utf-8"?>
<!-- Generator: Adobe Illustrator 16.0.0, SVG Export Plug-In . SVG Version: 6.00 Build 0)  -->
<!DOCTYPE svg PUBLIC "-//W3C//DTD SVG 1.1//EN" "http://www.w3.org/Graphics/SVG/1.1/DTD/svg11.dtd">
<svg version="1.1" id="Capa_1" xmlns="http://www.w3.org/2000/svg" xmlns:xlink="http://www.w3.org/1999/xlink" x="0px" y="0px"
	 width="600px" height="600px" viewBox="0 0 600 600" enable-background="new 0 0 600 600" xml:space="preserve">
<g id="svga-group-wrapper" transform="scale(3 3)">
	<g id="svga-group-backs-single">
		<path id="SvgjsPath5452" fill="#FFFFFF" d="M225,225H-25V-25h250V225z"/>
	</g>
	<g id="svga-group-subwrapper">
		<g id="svga-group-hair-back">
			<path id="SvgjsPath5251" fill="#504543" d="M100.5,100.5h-1v-1h1V100.5z"/>
		</g>
		<g id="svga-group-humanbody-single">
			<path id="SvgjsPath4863" fill="#FFD0BC" d="M195.417,199.778c-2.196-4.746-8.195-11.779-14.86-13.722
				c-8.239-2.403-26.837-5.308-33.733-6.923c-5.528-1.296-16.662-11.294-20.564-14.65c-0.7-0.6-1.273-1.839-1.287-2.76
				c-0.139-10.864,4.195-39.724,4.195-39.724H100H70.833c0,0,4.334,28.859,4.193,39.724c-0.011,0.921-0.587,2.16-1.285,2.76
				c-3.902,3.356-15.036,13.354-20.564,14.65c-6.897,1.615-25.495,4.619-33.733,7.022c-6.667,1.942-12.664,8.876-14.86,13.622
				c-3.708,8.008-4.584,22.5-4.584,35h100h100C200,222.278,199.123,207.786,195.417,199.778z"/>
			<path id="SvgjsPath4864" fill="#FFE2D6" d="M159.156,184.058c24.342,3.542,34.586,8.708,37.794,50.721H200
				c0-12.5-0.877-26.992-4.583-35c-2.196-4.746-8.195-11.779-14.86-13.722c-8.239-2.403-26.837-5.308-33.733-6.923
				c-5.528-1.296-18.242-12.069-21.643-16.35c3.36,4.704,12.791,15.605,21.054,18.46C150.188,182.61,153.48,183.232,159.156,184.058
				z M53.766,181.244c8.263-2.854,17.693-13.756,21.054-18.46c-3.4,4.28-16.114,15.054-21.643,16.35
				c-6.896,1.615-25.494,4.619-33.733,7.022c-6.665,1.942-12.664,8.876-14.86,13.622c-3.706,8.008-4.583,22.5-4.583,35h3.05
				c3.188-41.744,13.475-47.183,37.794-50.721C46.52,183.232,49.813,182.61,53.766,181.244z"/>
			<path id="SvgjsPath4865" fill="#F0B399" d="M95.646,197.62c0,0-5.074-1.609-7.083-2.379c-10.449-4.009-44.395-6.607-44.395-6.607
				s35.754,1.419,43.644,2.779c-0.458-4.767-3.017-20.004-3.017-20.004s5.149,16.815,6.409,21.057
				C91.878,194.734,95.646,197.62,95.646,197.62z M106.445,196.278c-0.089,0.073-0.191,0.168-0.302,0.268
				C106.256,196.461,106.358,196.372,106.445,196.278z M95.646,197.62c0,0,2.893,2.992,4.347,3.03
				c1.91,0.051,4.828-2.899,6.151-4.104c-1.265,0.957-4.159,1.391-5.31,1.436C99.504,198.033,95.646,197.62,95.646,197.62z
				 M116.664,190.101c-1.545,0.248-4.386,0.789-4.386,0.789l2.287-14.89c-0.646,3.071-4.474,16.211-8.12,20.278
				c1.91-1.616,6.158-2.391,8.324-2.704c10.236-1.484,10.232-1.483,41.062-4.94C155.831,188.634,126.76,188.479,116.664,190.101z"/>
			<path id="SvgjsPath4866" fill="none" stroke="#D17F5B" stroke-width="1.5" d="M195.417,199.778
				c-2.196-4.746-8.195-11.779-14.86-13.722c-8.239-2.403-26.837-5.308-33.733-6.923c-5.528-1.296-16.662-11.294-20.564-14.65
				c-0.7-0.6-1.273-1.839-1.287-2.76c-0.139-10.864,4.195-39.724,4.195-39.724H100H70.833c0,0,4.334,28.859,4.193,39.724
				c-0.011,0.921-0.587,2.16-1.285,2.76c-3.902,3.356-15.036,13.354-20.564,14.65c-6.897,1.615-25.495,4.619-33.733,7.022
				c-6.667,1.942-12.664,8.876-14.86,13.622c-3.708,8.008-4.584,22.5-4.584,35h100h100C200,222.278,199.123,207.786,195.417,199.778
				z"/>
		</g>
		<g id="svga-group-chinshadow-single">
			
				<linearGradient id="SvgjsPath5171_1_" gradientUnits="userSpaceOnUse" x1="31.1777" y1="161.4456" x2="31.1777" y2="203.4456" gradientTransform="matrix(3 0 0 -3 6.4666 656.3359)">
				<stop  offset="0" style="stop-color:#F0B399;stop-opacity:0.8"/>
				<stop  offset="0.7" style="stop-color:#D17F5B"/>
			</linearGradient>
			<path id="SvgjsPath5171" fill="url(#SvgjsPath5171_1_)" d="M75.464,163.188c5.276,4.256,10.716,8.678,24.538,8.678
				c13.815,0,19.256-4.418,24.531-8.672c-0.188-0.49-0.305-0.997-0.312-1.461c-0.088-6.889,1.573-20.711,2.835-30.131
				c-15.695-2.201-38.418-2.201-54.113,0c1.261,9.421,2.922,23.242,2.833,30.13C75.771,162.188,75.654,162.695,75.464,163.188z"/>
		</g>
		<g id="svga-group-clothes-single">
			<path id="SvgjsPath5006" fill="#386E77" d="M111.806,235.888c-19.135,0-41.455-0.074-68.233-0.229l-23.679-0.128
				c-14.298-0.078-15.141-0.094-16.887-0.094l-4.899,0.007c-4.571-41.875,14.41-52.87,43.762-56.708
				c7.789-1.097,15.449-3.097,21.459-6.972c16.327,22.243,64.811,17.562,73.103-0.629c1.39,0.53,2.539,1.215,3.977,1.734
				c4.666,3.433,11.072,5.836,17.628,6.199c26.008,1.441,44.419,12.996,44.057,54.64c0.003,0.165,0.004,1.175-0.013,1.49
				c-12.513,0-17.206,0.121-27.034,0.262c-13.331,0.19-29.923,0.427-63.229,0.427C111.813,235.888,111.81,235.888,111.806,235.888z"
				/>
			<path id="SvgjsPath5007" fill="#4D7E86" d="M201.055,234.64c-0.41-7.385-4.064-28.058-10.36-37.541
				c-12.482-18.805-42.26-12.206-49.132-19.693c-4.986,10.159-24.975,16.595-31.594,17.54c19.181-6.36,27.237-10.959,30.42-21.87
				c6.405,8.33,41.074,1.971,54.717,24.331C199.101,203.954,202.9,224.793,201.055,234.64z M55.811,177.628
				c1.357-0.315,2.034-1.249,3.381-1.614l-1.426-1.891c-9.049,7.052-42.909,2.645-54.519,24.036
				c-3.659,6.741-6.127,22.788-4.192,36.439c0.537-8.384,0.799-26.314,7.095-35.798c11.324-17.06,31.974-12.553,47.619-19.775
				c6.983,8.6,17.888,12.828,28.984,14.577C68.832,189.971,60.85,183.84,55.811,177.628z"/>
			<path id="SvgjsPath5008" fill="#265E68" d="M135.31,173.244c-5.532,11.514-47.35,24.923-70.93,0.879
				c-1.466,0.622-5.852,2.112-5.852,2.112c17.176,23.386,67.511,23.534,80.909-0.114
				C139.378,176.098,136.672,173.936,135.31,173.244z"/>
			<path id="SvgjsPath5009" fill="#0C4049" d="M136.38,171.002c-9.413,18.822-58.397,21.485-73.012,0.632
				c-5.337,1.578-10.469,4.941-15.636,5.782C16.812,182.021-6.046,184.335-2,235.552c9.94,0-6.611-0.065,45.571,0.215
				c123.59,0.71,119.562-0.461,158.606-0.461c0.029-0.14,0.015-1.452,0.021-1.596c2.096-56.436-30.852-53.104-53.12-56.995
				c-3.144-0.718-6.066-2.773-8.635-3.945C139.024,172.121,137.818,171.538,136.38,171.002z M63.014,172.265
				c12.974,23.392,64.219,18.699,74.113,0.101c1.2,0.504,1.507,0.704,2.898,1.197c-10.248,21.489-60.942,28.337-81.677,1.163
				C58.494,174.685,61.552,172.813,63.014,172.265z M-0.845,234.778c-2.421-26.431,1.797-48.043,32.78-53.345
				c10.276-1.896,16.557-1.962,25.384-5.794c16.763,27.405,72.098,23.158,83.598-1.305c1.652,1.409,4.228,3.03,7.405,3.785
				c18.098,4.299,54.838-0.894,52.898,56.658C147.163,234.075,102.355,232.433-0.845,234.778z"/>
		</g>
		<g id="svga-group-head">
			<g id="svga-group-ears-left">
				<path id="SvgjsPath5142" fill="#FFD0BC" stroke="#D17F5B" stroke-width="1.5" d="M45.443,82.722
					c-1.469-2.433-6.648-7.545-10.31-6.61c-2.979,0.762-6.032,3.243-6.032,7.473c-0.001,6.553,1.496,9.338,2.501,12.311
					c0.856,2.53,3.915,7.167,5.761,8.964c2.273,2.208,5.957,9.35,6.404,10.079c0.705,1.154,1.877,2.988,4.043,3.057
					c3.29,0.104,7.085-2.105,7.323-3.488C56.42,107.009,49.263,89.052,45.443,82.722z"/>
				<path id="SvgjsPath5143" fill="#D17F5B" d="M43.596,99.086c-0.142-0.558,0.007-1.495,0.152-2.4
					c0.131-0.826,0.255-1.605,0.18-2.157c-0.285-2.064-1.892-5.988-2.942-8.115c-1.208-2.446-4.117-5.528-6.568-6.322
					c-1.013-0.329-1.681,0.064-2.067,0.463c-0.284,0.293-0.347,0.637-0.254,0.678c0.093,0.041,0.304-0.244,0.61-0.513
					c0.25-0.22,0.617-0.408,1.122-0.369c-0.203,1.028-3.138,4.222-1.381,10.392c0.822,2.888,1.992,5.214,2.202,5.549
					c0.032,0.352,0.083,0.696,0.159,1.031c0.991,4.357,7.286,11.54,8.785,13.162c0.277,0.3,0.567,0.477,0.639,0.406
					c0.072-0.072-0.1-0.368-0.376-0.671c-1.48-1.611-7.734-8.777-8.69-12.981c-1.754-7.702,1.916-7.832,4.499-12.473
					c0.397,0.657,0.733,1.288,0.993,1.814c0.203,0.413,0.429,0.896,0.661,1.417c-0.458,0.729-5.059,6.055-3.889,10.317
					c0.433,1.572,3.779,3.598,5.073,4.153c0.712,0.306,0.979,0.763,1.289,1.291c0.359,0.613,0.767,2.796,1.95,3.298
					c0.241,0.103,0.458,0.146,0.651,0.146c0.334,0,0.587-0.128,0.774-0.28c0.019,0.267,0.018,0.612,0.008,0.93
					c-0.011,0.411,0.046,0.748,0.147,0.756c0.101,0.008,0.208-0.317,0.221-0.727c0.016-0.504,0.014-1.128-0.077-1.426
					c-0.265-0.88-1.076-1.871-1.934-2.921C44.688,102.503,43.815,99.947,43.596,99.086z M34.616,95.223
					c-2.322-6.84,0.993-12.744,1.514-13.684c0.908,0.787,2.662,1.841,3.314,2.87C36.33,89.804,34.811,86.051,34.616,95.223z
					 M45.884,106.717c-1.072-0.455-1.431-2.555-1.778-3.147c-0.314-0.536-0.639-1.089-1.461-1.443
					c-0.179-0.077-0.376-0.194-0.578-0.328c-3.861-5.758,0.291-8.626,1.027-9.163c0.226,0.734,0.396,1.407,0.47,1.946
					c0.068,0.496-0.058,1.284-0.179,2.045c-0.15,0.944-0.306,1.92-0.145,2.553c0.24,0.941,1.14,3.529,2.01,4.594
					c0.772,0.945,1.564,1.919,1.835,2.713C46.97,106.645,46.604,107.022,45.884,106.717z"/>
			</g>
			<g id="svga-group-ears-right">
				<path id="SvgjsPath5144" fill="#FFD0BC" stroke="#D17F5B" stroke-width="1.5" d="M154.295,82.722
					c1.469-2.433,6.648-7.545,10.311-6.61c2.979,0.762,6.031,3.243,6.031,7.473c0.002,6.553-1.496,9.338-2.5,12.311
					c-0.857,2.53-3.916,7.167-5.762,8.964c-2.273,2.208-5.957,9.35-6.404,10.079c-0.705,1.154-1.877,2.988-4.043,3.057
					c-3.291,0.104-7.086-2.105-7.324-3.488C143.318,107.009,150.475,89.052,154.295,82.722z"/>
				<path id="SvgjsPath5145" fill="#D17F5B" d="M154.205,103.536c-0.857,1.05-1.668,2.041-1.934,2.921
					c-0.09,0.298-0.092,0.922-0.076,1.426c0.014,0.409,0.119,0.734,0.221,0.727c0.102-0.007,0.158-0.345,0.146-0.756
					c-0.01-0.317-0.01-0.663,0.01-0.93c0.186,0.152,0.439,0.28,0.773,0.28c0.193,0,0.41-0.043,0.65-0.146
					c1.184-0.502,1.592-2.686,1.951-3.298c0.311-0.528,0.576-0.985,1.289-1.291c1.293-0.555,4.639-2.581,5.072-4.153
					c1.17-4.262-3.432-9.588-3.889-10.317c0.232-0.522,0.457-1.004,0.66-1.417c0.26-0.526,0.596-1.157,0.994-1.814
					c2.582,4.641,6.252,4.771,4.498,12.473c-0.957,4.204-7.209,11.37-8.689,12.981c-0.275,0.303-0.447,0.599-0.377,0.671
					c0.072,0.07,0.361-0.106,0.639-0.406c1.5-1.622,7.795-8.805,8.785-13.162c0.076-0.334,0.129-0.679,0.16-1.031
					c0.209-0.334,1.379-2.661,2.201-5.549c1.758-6.17-1.178-9.364-1.381-10.392c0.504-0.039,0.871,0.149,1.123,0.369
					c0.305,0.269,0.518,0.553,0.609,0.513c0.094-0.041,0.029-0.385-0.254-0.678c-0.387-0.399-1.055-0.792-2.068-0.463
					c-2.451,0.794-5.359,3.876-6.568,6.322c-1.049,2.126-2.656,6.05-2.941,8.115c-0.074,0.552,0.049,1.331,0.18,2.157
					c0.145,0.906,0.293,1.843,0.152,2.4C155.924,99.947,155.051,102.503,154.205,103.536z M160.295,84.409
					c0.652-1.029,2.406-2.083,3.313-2.87c0.521,0.939,3.836,6.843,1.516,13.684C164.928,86.051,163.408,89.804,160.295,84.409z
					 M152.652,106.486c0.271-0.794,1.064-1.768,1.836-2.713c0.869-1.065,1.77-3.653,2.01-4.594c0.16-0.632,0.006-1.608-0.145-2.553
					c-0.121-0.761-0.248-1.55-0.18-2.045c0.074-0.539,0.244-1.212,0.471-1.946c0.734,0.537,4.887,3.405,1.025,9.163
					c-0.201,0.134-0.398,0.251-0.578,0.328c-0.822,0.354-1.146,0.908-1.461,1.443c-0.346,0.592-0.705,2.692-1.777,3.147
					C153.135,107.022,152.768,106.645,152.652,106.486z"/>
			</g>
			<g id="svga-group-faceshape-wrap">
				<g id="svga-group-faceshape-single">
					<path id="SvgjsPath5168" fill="#FFD0BC" d="M100.002,0.867C66.384,0.92,39.082,28.536,39.134,62.56
						c0.008,5.403,0.704,10.643,2.002,15.634h0.001c0.012,0.054,11.542,38.591,14.02,51.25c1.382,7.06,9.063,15.656,16.531,20.849
						c6.967,4.845,11.263,11.574,28.313,11.574c17.05,0,21.346-6.729,28.313-11.574c7.468-5.192,15.149-13.789,16.531-20.849
						c2.479-12.658,14.009-51.196,14.02-51.25h0.002c1.298-4.992,1.994-10.231,2.002-15.634
						C160.923,28.536,133.62,0.92,100.002,0.867z"/>
					<path id="SvgjsPath5169" fill="#F7C1AA" d="M146.772,23.096c7.478,10.35,11.917,23.245,11.898,37.227
						c-0.009,5.403-0.679,10.643-1.93,15.634h-0.002c-0.011,0.054-11.124,38.591-13.512,51.25
						c-1.335,7.06-8.737,15.656-15.935,20.849c-6.718,4.845-10.854,11.575-27.291,11.575c-16.434,0-20.575-6.73-27.291-11.575
						c-7.197-5.192-14.602-13.789-15.931-20.849c-2.391-12.658-13.504-51.195-13.515-51.25l0,0
						c-1.252-4.992-1.922-10.231-1.931-15.634c-0.021-13.978,4.416-26.868,11.889-37.217c-8.812,10.697-14.112,24.45-14.089,39.453
						c0.008,5.403,0.704,10.643,2.002,15.634h0.001c0.012,0.054,11.542,38.591,14.02,51.25c1.382,7.06,9.063,15.656,16.531,20.849
						c6.967,4.845,11.263,11.574,28.313,11.574c17.05,0,21.346-6.729,28.313-11.574c7.468-5.192,15.149-13.789,16.531-20.849
						c2.479-12.658,14.009-51.196,14.02-51.25h0.002c1.298-4.992,1.994-10.231,2.002-15.634
						C160.894,47.552,155.589,33.795,146.772,23.096z"/>
					<path id="SvgjsPath5170" fill="none" stroke="#D17F5B" stroke-width="1.5" d="M100.002,0.867
						C66.384,0.92,39.082,28.536,39.134,62.56c0.008,5.403,0.704,10.643,2.002,15.634h0.001c0.012,0.054,11.542,38.591,14.02,51.25
						c1.382,7.06,9.063,15.656,16.531,20.849c6.967,4.845,11.263,11.574,28.313,11.574c17.05,0,21.346-6.729,28.313-11.574
						c7.468-5.192,15.149-13.789,16.531-20.849c2.479-12.658,14.009-51.196,14.02-51.25h0.002
						c1.298-4.992,1.994-10.231,2.002-15.634C160.923,28.536,133.62,0.92,100.002,0.867z"/>
				</g>
			</g>
			<g id="svga-group-mouth-single">
				<path id="SvgjsPath5139" fill="#D17F5B" d="M100.34,141.925c-1.526,0-2.998-0.193-3.9-0.547
					c-0.257-0.102-0.384-0.392-0.283-0.648c0.101-0.257,0.39-0.383,0.648-0.283c1.664,0.653,5.855,0.676,7.704-0.193
					c0.251-0.117,0.548-0.01,0.665,0.239c0.118,0.25,0.011,0.548-0.239,0.665C103.815,141.684,102.044,141.925,100.34,141.925z
					 M115.025,133.444c0.398-0.171,0.584-0.632,0.413-1.031c-0.171-0.399-0.635-0.583-1.031-0.413
					c-11.666,4.992-28.742,0.338-28.912,0.292c-0.417-0.116-0.852,0.127-0.968,0.546c-0.116,0.418,0.128,0.851,0.546,0.968
					c0.463,0.128,7.692,2.1,16.034,2.1C105.727,135.905,110.685,135.301,115.025,133.444z"/>
			</g>
			<g id="svga-group-eyes-left">
				<g id="svga-group-eyesback-left">
					
						<radialGradient id="SvgjsPath5259_1_" cx="41.2641" cy="189.3122" r="13.25" gradientTransform="matrix(-3.2988 0.1269 -0.1905 -2.7621 245.6953 601.9298)" gradientUnits="userSpaceOnUse">
						<stop  offset="0" style="stop-color:#FFFFFF"/>
						<stop  offset="0.544" style="stop-color:#FDFEFE"/>
						<stop  offset="0.74" style="stop-color:#F6F8F9"/>
						<stop  offset="0.879" style="stop-color:#EAEFF2"/>
						<stop  offset="0.992" style="stop-color:#D9E3E8"/>
						<stop  offset="1" style="stop-color:#D8E2E7"/>
					</radialGradient>
					<path id="SvgjsPath5259" fill="url(#SvgjsPath5259_1_)" d="M76.732,78.383c4.587,0.679,7.931,3.488,10.773,7.94
						c0.004,0.005,0.013,0.004,0.018,0.008c0.007,0.027,0.021,0.053,0.026,0.08c0.255,1.007-0.816,1.819-2.155,2.438
						c-4.771,0.609-9.359,1.489-14.194,0.87c-9.681-1.241-9.855-5.509-10.326-6.629c-0.252-1.101-0.325-1.417-0.311-2.473
						c2.332-1.366,4.043-1.647,5.854-2.005C68.541,78.194,73.268,77.868,76.732,78.383z"/>
				</g>
				<g id="svga-group-eyesiriswrapper-left" transform="translate(0.25 0)">
					<g id="svga-group-eyesiriscontrol-left">
						<g id="svga-group-eyesiris-left">
							<path id="SvgjsPath5365" fill="#7085B3" d="M80,84c0,3.313-2.687,6-6,6c-3.313,0-6-2.687-6-6l0,0c0-3.314,2.687-6,6-6
								C77.313,77.999,80,80.686,80,84L80,84z"/>
							
								<radialGradient id="SvgjsPath5366_1_" cx="-228.1422" cy="275.9567" r="59.7512" gradientTransform="matrix(0.288 -0.0744 -0.0735 -0.2883 159.9123 146.6045)" gradientUnits="userSpaceOnUse">
								<stop  offset="0" style="stop-color:#FFFFFF"/>
								<stop  offset="1" style="stop-color:#FFFFFF;stop-opacity:0"/>
							</radialGradient>
							<path id="SvgjsPath5366" opacity="0.7" fill="url(#SvgjsPath5366_1_)" enable-background="new    " d="M73.328,78.066
								c-0.023,0.003-0.047,0.006-0.071,0.009c0.029,0.135,0.057,0.271,0.085,0.406C73.336,78.344,73.333,78.204,73.328,78.066z
								 M73.341,78.48c0.07,1.972,0.185,3.729,0.517,4.364C74.033,82.148,73.735,80.414,73.341,78.48z M73.859,82.845
								c-0.043,0.167-0.108,0.281-0.208,0.319c-0.1,0.038-0.226-0.006-0.368-0.103c0.041,0.167,0.037,0.297-0.036,0.378
								c-0.072,0.081-0.201,0.101-0.373,0.078c0.113,0.13,0.171,0.249,0.146,0.353c-0.027,0.104-0.134,0.182-0.293,0.242
								c0.159,0.063,0.266,0.141,0.291,0.245c0.025,0.104-0.033,0.223-0.145,0.352c0.17-0.021,0.301,0.001,0.371,0.082
								c0.071,0.081,0.075,0.212,0.035,0.379c0.141-0.097,0.265-0.139,0.365-0.1c0.101,0.038,0.166,0.152,0.206,0.32
								c0.081-0.152,0.171-0.249,0.28-0.26c0.104-0.014,0.216,0.059,0.329,0.188c0.001-0.172,0.037-0.299,0.127-0.36
								c0.088-0.061,0.219-0.049,0.379,0.013c-0.078-0.152-0.105-0.281-0.055-0.377c0.05-0.095,0.173-0.146,0.344-0.166
								c-0.141-0.099-0.227-0.2-0.225-0.308c0-0.108,0.084-0.209,0.227-0.306c-0.17-0.021-0.291-0.072-0.342-0.167
								c-0.049-0.095-0.022-0.225,0.058-0.377c-0.162,0.06-0.292,0.072-0.38,0.011c-0.089-0.061-0.125-0.188-0.125-0.36
								c-0.112,0.128-0.224,0.199-0.33,0.185C74.029,83.092,73.938,82.998,73.859,82.845z M74.466,82.92
								c0.479-0.535,1.021-2.209,1.57-4.104C75.182,80.593,74.467,82.202,74.466,82.92z M76.035,78.816
								c0.06-0.122,0.121-0.246,0.178-0.37c-0.021-0.007-0.042-0.017-0.063-0.026C76.112,78.553,76.074,78.686,76.035,78.816z
								 M74.972,83.27c0.672-0.252,1.931-1.483,3.297-2.905C76.688,81.541,75.306,82.634,74.972,83.27z M78.269,80.365
								c0.1-0.075,0.203-0.15,0.305-0.225c-0.014-0.018-0.03-0.033-0.042-0.049C78.445,80.181,78.358,80.274,78.269,80.365z
								 M75.254,83.814c0.713,0.088,2.4-0.417,4.272-1.041C77.578,83.081,75.848,83.406,75.254,83.814z M79.526,82.774
								c0.11-0.016,0.225-0.034,0.337-0.052c-0.004-0.019-0.009-0.038-0.014-0.057C79.742,82.701,79.632,82.738,79.526,82.774z
								 M75.253,84.427c0.59,0.412,2.318,0.747,4.262,1.063C77.65,84.857,75.967,84.342,75.253,84.427z M79.516,85.49
								c0.095,0.033,0.191,0.067,0.285,0.098c0.005-0.017,0.009-0.033,0.012-0.05C79.716,85.523,79.615,85.507,79.516,85.49z
								 M74.965,84.97c0.333,0.637,1.708,1.738,3.282,2.924C76.888,86.464,75.638,85.226,74.965,84.97z M78.248,87.892
								c0.059,0.062,0.12,0.126,0.179,0.189c0.01-0.012,0.019-0.021,0.03-0.032C78.387,87.997,78.315,87.944,78.248,87.892z
								 M74.46,85.317c-0.003,0.719,0.703,2.331,1.547,4.113C75.468,87.533,74.937,85.855,74.46,85.317z M76.007,89.431
								c0.021,0.075,0.043,0.152,0.063,0.229c0.015-0.006,0.025-0.01,0.039-0.014C76.076,89.574,76.041,89.5,76.007,89.431z
								 M73.851,85.389c-0.336,0.637-0.461,2.39-0.542,4.361C73.713,87.82,74.022,86.087,73.851,85.389z M73.309,89.75
								c-0.017,0.075-0.031,0.151-0.047,0.228c0.014,0.003,0.025,0.003,0.039,0.005C73.303,89.906,73.307,89.826,73.309,89.75z
								 M73.28,85.169c-0.596,0.407-1.521,1.904-2.508,3.61C72.026,87.259,73.106,85.867,73.28,85.169z M70.772,88.779
								c-0.053,0.063-0.108,0.13-0.162,0.193c0.013,0.008,0.024,0.014,0.038,0.024C70.688,88.924,70.731,88.851,70.772,88.779z
								 M72.875,84.71c-0.716,0.083-2.231,0.978-3.898,2.029C70.795,85.977,72.395,85.248,72.875,84.71z M68.976,86.741
								c-0.086,0.036-0.174,0.072-0.263,0.11c0.006,0.013,0.015,0.027,0.023,0.04C68.817,86.842,68.897,86.791,68.976,86.741z
								 M72.728,84.113c-0.671-0.257-2.429-0.168-4.395-0.011C70.297,84.27,72.055,84.367,72.728,84.113z M68.333,84.102
								c-0.107-0.01-0.217-0.02-0.323-0.029c0,0.019-0.002,0.038,0,0.056C68.119,84.119,68.228,84.11,68.333,84.102z M72.875,83.519
								c-0.473-0.539-2.069-1.277-3.881-2.051C70.653,82.528,72.163,83.432,72.875,83.519z M68.994,81.468
								c-0.104-0.067-0.209-0.134-0.315-0.201c-0.009,0.019-0.019,0.038-0.029,0.055C68.766,81.371,68.882,81.419,68.994,81.468z
								 M73.284,83.061c-0.169-0.698-1.241-2.094-2.485-3.623C71.775,81.15,72.692,82.651,73.284,83.061z M70.799,79.438
								c-0.067-0.115-0.132-0.232-0.199-0.349c-0.019,0.013-0.039,0.026-0.056,0.039C70.628,79.231,70.716,79.335,70.799,79.438z"/>
							
								<radialGradient id="SvgjsPath5370_1_" cx="-198.1142" cy="270.085" r="59.7512" gradientTransform="matrix(0.2973 0.0027 0.0033 -0.2973 131.9334 164.8509)" gradientUnits="userSpaceOnUse">
								<stop  offset="0" style="stop-color:#FFFFFF"/>
								<stop  offset="1" style="stop-color:#FFFFFF;stop-opacity:0"/>
							</radialGradient>
							<path id="SvgjsPath5370" opacity="0.4" fill="url(#SvgjsPath5370_1_)" enable-background="new    " d="M74.886,78.086
								c-0.024-0.003-0.047-0.007-0.07-0.01c-0.007,0.138-0.016,0.277-0.024,0.414C74.822,78.356,74.855,78.22,74.886,78.086z
								 M74.791,78.489c-0.442,1.922-0.787,3.649-0.629,4.35C74.511,82.211,74.671,80.459,74.791,78.489z M74.161,82.839
								c-0.084,0.15-0.176,0.243-0.283,0.254c-0.106,0.01-0.216-0.064-0.327-0.195c-0.004,0.171-0.042,0.297-0.133,0.356
								c-0.09,0.059-0.221,0.045-0.38-0.021c0.076,0.155,0.101,0.285,0.049,0.378c-0.053,0.094-0.176,0.142-0.345,0.158
								c0.137,0.101,0.22,0.204,0.217,0.312c-0.002,0.107-0.089,0.207-0.231,0.302c0.169,0.024,0.29,0.079,0.337,0.174
								c0.048,0.096,0.018,0.225-0.064,0.375c0.161-0.057,0.292-0.065,0.379-0.002s0.12,0.19,0.116,0.363
								c0.117-0.125,0.229-0.196,0.337-0.179c0.105,0.014,0.194,0.113,0.27,0.268c0.045-0.167,0.113-0.279,0.216-0.315
								c0.101-0.036,0.225,0.01,0.363,0.111c-0.036-0.167-0.029-0.299,0.044-0.378c0.073-0.079,0.205-0.096,0.376-0.072
								c-0.111-0.132-0.168-0.251-0.138-0.355c0.028-0.104,0.136-0.18,0.299-0.237c-0.16-0.064-0.263-0.145-0.288-0.25
								c-0.023-0.105,0.037-0.223,0.154-0.349c-0.172,0.016-0.301-0.006-0.37-0.088c-0.07-0.082-0.072-0.214-0.028-0.379
								c-0.142,0.094-0.268,0.134-0.367,0.093C74.261,83.122,74.199,83.007,74.161,82.839z M74.729,83.07
								c0.601-0.394,1.557-1.871,2.578-3.558C76.022,81.007,74.916,82.375,74.729,83.07z M77.307,79.511
								c0.089-0.102,0.18-0.206,0.268-0.311c-0.019-0.013-0.036-0.028-0.055-0.042C77.449,79.277,77.378,79.396,77.307,79.511z
								 M75.127,83.538c0.715-0.07,2.25-0.934,3.937-1.953C77.231,82.312,75.614,83.01,75.127,83.538z M79.063,81.584
								c0.117-0.046,0.235-0.092,0.354-0.138c-0.01-0.021-0.021-0.04-0.028-0.059C79.281,81.453,79.173,81.52,79.063,81.584z
								 M75.259,84.137c0.666,0.27,2.426,0.218,4.395,0.101C77.693,84.03,75.938,83.896,75.259,84.137z M79.654,84.237
								c0.112,0.013,0.226,0.025,0.339,0.037c0-0.02,0.001-0.039,0.002-0.058C79.881,84.223,79.766,84.23,79.654,84.237z
								 M75.1,84.729c0.462,0.551,2.046,1.321,3.842,2.129C77.303,85.763,75.811,84.831,75.1,84.729z M78.941,86.858
								c0.083,0.057,0.167,0.114,0.25,0.168c0.009-0.015,0.017-0.03,0.025-0.045C79.126,86.942,79.032,86.9,78.941,86.858z
								 M74.68,85.179c0.156,0.701,1.2,2.12,2.414,3.674C76.151,87.119,75.264,85.599,74.68,85.179z M77.094,88.85
								c0.042,0.075,0.083,0.153,0.125,0.229c0.012-0.009,0.024-0.016,0.037-0.024C77.202,88.987,77.147,88.917,77.094,88.85z
								 M74.103,85.383c-0.188,0.693,0.076,2.433,0.43,4.373C74.502,87.784,74.424,86.026,74.103,85.383z M74.532,89.756
								c0.001,0.078,0.003,0.158,0.003,0.238c0.014-0.002,0.027-0.004,0.041-0.004C74.562,89.913,74.547,89.833,74.532,89.756z
								 M73.496,85.294c-0.49,0.528-1.064,2.189-1.652,4.072C72.733,87.607,73.481,86.013,73.496,85.294z M71.843,89.366
								c-0.035,0.068-0.07,0.138-0.104,0.208c0.012,0.006,0.023,0.009,0.036,0.015C71.797,89.516,71.821,89.439,71.843,89.366z
								 M73,84.934c-0.68,0.239-1.962,1.446-3.357,2.838C71.25,86.628,72.652,85.563,73,84.934z M69.644,87.772
								c-0.067,0.047-0.137,0.098-0.205,0.145c0.01,0.011,0.02,0.02,0.029,0.032C69.525,87.89,69.585,87.832,69.644,87.772z
								 M72.728,84.385c-0.713-0.104-2.407,0.368-4.291,0.952C70.392,85.071,72.125,84.781,72.728,84.385z M68.437,85.339
								c-0.092,0.013-0.187,0.024-0.283,0.039c0.003,0.015,0.008,0.03,0.013,0.044C68.258,85.396,68.348,85.366,68.437,85.339z
								 M72.741,83.772c-0.582-0.423-2.303-0.792-4.242-1.149C70.353,83.294,72.025,83.843,72.741,83.772z M68.499,82.623
								c-0.101-0.037-0.205-0.075-0.305-0.112c-0.005,0.019-0.011,0.037-0.015,0.054C68.288,82.584,68.395,82.604,68.499,82.623z
								 M73.038,83.235c-0.318-0.643-1.668-1.769-3.219-2.986C71.147,81.704,72.372,82.968,73.038,83.235z M69.818,80.25
								c-0.083-0.091-0.167-0.183-0.251-0.275c-0.014,0.016-0.029,0.031-0.042,0.046C69.624,80.097,69.723,80.173,69.818,80.25z
								 M73.551,82.899c0.017-0.718-0.656-2.344-1.464-4.142C72.587,80.663,73.085,82.35,73.551,82.899z M72.087,78.757
								c-0.034-0.128-0.067-0.259-0.101-0.389c-0.021,0.007-0.043,0.015-0.063,0.023C71.977,78.513,72.033,78.636,72.087,78.757z"/>
							<path id="SvgjsPath5374" fill="#7085B3" d="M76.354,84c0,1.3-1.053,2.353-2.353,2.353c-1.299,0-2.354-1.053-2.354-2.353
								c0-1.299,1.055-2.354,2.354-2.354C75.301,81.646,76.354,82.7,76.354,84z"/>
							<path id="SvgjsPath5375" opacity="0.9" enable-background="new    " d="M76.354,84c0,1.3-1.053,2.353-2.353,2.353
								c-1.299,0-2.354-1.053-2.354-2.353c0-1.299,1.055-2.354,2.354-2.354C75.301,81.646,76.354,82.7,76.354,84z"/>
							
								<linearGradient id="SvgjsPath5376_1_" gradientUnits="userSpaceOnUse" x1="38.4849" y1="189.3561" x2="39.4205" y2="190.4716" gradientTransform="matrix(3 0 0 -3 -44.7834 656.3359)">
								<stop  offset="0" style="stop-color:#FFFFFF"/>
								<stop  offset="1" style="stop-color:#FFFFFF;stop-opacity:0"/>
							</linearGradient>
							<path id="SvgjsPath5376" opacity="0.5" fill="url(#SvgjsPath5376_1_)" enable-background="new    " d="M70.717,86.748
								c0.449-0.302,1.059-0.18,1.36,0.268c0.301,0.449,0.182,1.059-0.268,1.36c-0.45,0.303-1.059,0.183-1.36-0.267
								C70.148,87.66,70.268,87.049,70.717,86.748L70.717,86.748z"/>
							
								<linearGradient id="SvgjsPath5380_1_" gradientUnits="userSpaceOnUse" x1="39.9985" y1="191.3467" x2="39.2495" y2="190.4537" gradientTransform="matrix(3 0 0 -3 -44.7834 656.3359)">
								<stop  offset="0" style="stop-color:#FFFFFF"/>
								<stop  offset="1" style="stop-color:#FFFFFF;stop-opacity:0"/>
							</linearGradient>
							<path id="SvgjsPath5380" opacity="0.5" fill="url(#SvgjsPath5380_1_)" enable-background="new    " d="M75.86,83.672
								c-0.251,0.374-0.969,0.331-1.606-0.096c-0.638-0.427-0.95-1.078-0.7-1.451v-0.001c0.25-0.374,0.969-0.331,1.605,0.097
								C75.798,82.647,76.11,83.297,75.86,83.672L75.86,83.672z"/>
							
								<linearGradient id="SvgjsPath5384_1_" gradientUnits="userSpaceOnUse" x1="40.8066" y1="192.1716" x2="39.0801" y2="190.114" gradientTransform="matrix(3 0 0 -3 -44.7834 656.3359)">
								<stop  offset="0" style="stop-color:#FFFFFF"/>
								<stop  offset="1" style="stop-color:#FFFFFF;stop-opacity:0"/>
							</linearGradient>
							<path id="SvgjsPath5384" opacity="0.75" fill="url(#SvgjsPath5384_1_)" enable-background="new    " d="M78.716,82.673
								c-0.568,0.873-2.036,0.925-3.275,0.117c-1.24-0.808-1.784-2.17-1.215-3.043c0.568-0.872,2.036-0.924,3.275-0.117
								C78.74,80.439,79.284,81.802,78.716,82.673L78.716,82.673z"/>
						</g>
					</g>
				</g>
				<g id="svga-group-eyesfront-left">
					<path id="SvgjsPath5284" fill="#FFD0BC" d="M55.112,83.583c3.224,11.315,7.475,23.313,17.685,23.669
						c10.21,0.356,22.135-7.239,22.29-22.238c0.173-16.767-10.474-23.381-20.684-23.737S50.307,66.714,55.112,83.583z M60.875,83.09
						c-0.252-1.101-0.325-1.417-0.311-2.473c2.027-1.21,4.04-1.547,5.851-1.905c2.123-0.418,6.853-0.845,10.317-0.329
						c4.587,0.679,7.931,3.488,10.773,7.94c0.004,0.005,0.013,0.004,0.018,0.008c0.007,0.027,0.021,0.053,0.026,0.08
						c0.255,1.007-0.816,1.819-2.155,2.438c-4.771,0.609-9.359,1.489-14.194,0.87C61.519,88.478,61.345,84.21,60.875,83.09z"/>
					
						<radialGradient id="SvgjsPath5285_1_" cx="41.3702" cy="222.8369" r="17.0418" fx="54.8072" fy="221.7547" gradientTransform="matrix(2.9652 0.4101 -0.4008 2.2062 43.3875 -426.3176)" gradientUnits="userSpaceOnUse">
						<stop  offset="0" style="stop-color:#F0B399"/>
						<stop  offset="0.7" style="stop-color:#F0B399;stop-opacity:0.3"/>
						<stop  offset="1" style="stop-color:#FFD0BC;stop-opacity:0"/>
					</radialGradient>
					<path id="SvgjsPath5285" fill="url(#SvgjsPath5285_1_)" d="M74.225,95.171c9.256,1.401,17.847-3.01,19.186-9.859
						c1.34-6.849-5.072-13.537-14.329-14.94c-9.258-1.399-17.845,3.012-19.185,9.862C58.557,87.082,64.967,93.766,74.225,95.171z
						 M60.563,80.617c2.125-1.141,4.04-1.547,5.851-1.905c2.123-0.418,6.853-0.845,10.317-0.329
						c4.587,0.679,7.931,3.488,10.773,7.94c0.004,0.005,0.013,0.004,0.018,0.008c0.007,0.027,0.021,0.053,0.026,0.08
						c0.255,1.007-0.816,1.819-2.155,2.438c-4.771,0.609-9.359,1.489-14.194,0.87c-9.681-1.241-9.855-5.509-10.326-6.629
						C60.622,81.989,60.55,81.672,60.563,80.617z"/>
					
						<radialGradient id="SvgjsPath5290_1_" cx="21.6345" cy="183.6042" r="26.2378" gradientTransform="matrix(2.1549 -0.18 -0.2409 -1.8429 69.6376 436.6263)" gradientUnits="userSpaceOnUse">
						<stop  offset="0.95" style="stop-color:#000000;stop-opacity:0"/>
						<stop  offset="1" style="stop-color:#000000;stop-opacity:0.2"/>
					</radialGradient>
					<path id="SvgjsPath5290" fill="url(#SvgjsPath5290_1_)" d="M60.875,83.09c-0.252-1.101-0.325-1.417-0.311-2.473
						c2.092-1.175,4.04-1.547,5.851-1.905c2.123-0.418,6.853-0.845,10.317-0.329c4.587,0.679,7.931,3.488,10.773,7.94
						c0.004,0.005,0.013,0.004,0.018,0.008c0.007,0.027,0.021,0.053,0.026,0.08c0.255,1.007-0.816,1.819-2.155,2.438
						c-4.771,0.609-9.359,1.489-14.194,0.87C61.519,88.478,61.345,84.21,60.875,83.09z"/>
					<path id="SvgjsPath5294" fill="#D17F5B" d="M76.327,75.748c3.294,0.539,6.505,2.054,9.48,3.945
						c0.637,0.404,1.366,0.865,2.521,1.451c-0.828-0.188-1.594-0.617-2.309-1.011c0.736,0.698,1.422,1.529,1.982,2.334
						c-2.521-3.159-7.297-5.538-11.36-6.349c-3.902-0.779-10.989-0.264-16.251,2.042C65.208,75.449,72.237,75.08,76.327,75.748z"/>
					<path id="SvgjsPath5295" fill="#2A150E" d="M87.508,86.277c-2.847-4.34-6.193-7.082-10.781-7.747
						c-4.833-0.705-11.271-0.221-15.034,1.843c-0.308,0.169-1.607,1.249-1.401,0.117c0.874-1.167,4.322-2.523,5.993-2.928
						C85.03,73.019,88.582,87.854,87.508,86.277z M60.646,82.841c-0.716,2.063,0.861,6.654,10.145,7.503
						c6.595,0.602,15.767-1.75,14.634-1.613c-4.779,0.589-9.375,1.449-14.219,0.839C60.224,88.19,61.468,83.023,60.646,82.841z"/>
				</g>
			</g>
			<g id="svga-group-eyes-right">
				<g id="svga-group-eyesback-right">
					
						<radialGradient id="SvgjsPath5267_1_" cx="40.559" cy="189.2796" r="13.2485" gradientTransform="matrix(3.2988 0.1269 0.1905 -2.7621 -43.7622 601.9298)" gradientUnits="userSpaceOnUse">
						<stop  offset="0" style="stop-color:#FFFFFF"/>
						<stop  offset="0.544" style="stop-color:#FDFEFE"/>
						<stop  offset="0.74" style="stop-color:#F6F8F9"/>
						<stop  offset="0.879" style="stop-color:#EAEFF2"/>
						<stop  offset="0.992" style="stop-color:#D9E3E8"/>
						<stop  offset="1" style="stop-color:#D8E2E7"/>
					</radialGradient>
					<path id="SvgjsPath5267" fill="url(#SvgjsPath5267_1_)" d="M122.867,78.383c-4.586,0.679-7.931,3.488-10.773,7.94
						c-0.004,0.005-0.012,0.004-0.018,0.008c-0.006,0.027-0.02,0.053-0.025,0.08c-0.256,1.007,0.815,1.819,2.154,2.438
						c4.771,0.609,9.359,1.489,14.194,0.87c9.681-1.241,9.855-5.509,10.325-6.629c0.253-1.101,0.325-1.417,0.312-2.473
						c-2.331-1.366-4.043-1.647-5.854-2.005C131.059,78.194,126.332,77.868,122.867,78.383z"/>
				</g>
				<g id="svga-group-eyesiriswrapper-right" transform="translate(-0.25 0)">
					<g id="svga-group-eyesiriscontrol-right">
						<g id="svga-group-eyesiris-right">
							<path id="SvgjsPath5388" fill="#7085B3" d="M132,84c0,3.313-2.687,6-5.999,6c-3.313,0-6.001-2.687-6.001-6l0,0
								c0-3.314,2.688-6,6.001-6C129.313,77.999,132,80.686,132,84L132,84z"/>
							
								<radialGradient id="SvgjsPath5389_1_" cx="-227.6401" cy="275.9574" r="59.7506" gradientTransform="matrix(0.288 -0.0744 -0.0735 -0.2883 211.7673 146.642)" gradientUnits="userSpaceOnUse">
								<stop  offset="0" style="stop-color:#FFFFFF"/>
								<stop  offset="1" style="stop-color:#FFFFFF;stop-opacity:0"/>
							</radialGradient>
							<path id="SvgjsPath5389" opacity="0.7" fill="url(#SvgjsPath5389_1_)" enable-background="new    " d="M125.328,78.066
								c-0.023,0.003-0.047,0.006-0.071,0.009c0.029,0.135,0.058,0.271,0.085,0.406C125.336,78.344,125.333,78.204,125.328,78.066z
								 M125.341,78.48c0.069,1.972,0.185,3.729,0.518,4.364C126.033,82.148,125.735,80.414,125.341,78.48z M125.858,82.845
								c-0.042,0.167-0.108,0.281-0.207,0.319c-0.101,0.038-0.226-0.006-0.367-0.103c0.04,0.167,0.036,0.297-0.036,0.378
								c-0.072,0.081-0.201,0.101-0.372,0.078c0.112,0.13,0.171,0.249,0.146,0.353c-0.028,0.104-0.134,0.182-0.293,0.242
								c0.158,0.063,0.265,0.141,0.29,0.245c0.025,0.104-0.032,0.223-0.145,0.352c0.17-0.021,0.3,0.001,0.37,0.082
								c0.071,0.081,0.075,0.212,0.035,0.379c0.141-0.097,0.266-0.139,0.365-0.1c0.102,0.038,0.166,0.152,0.206,0.32
								c0.08-0.152,0.172-0.249,0.279-0.26c0.105-0.014,0.217,0.059,0.329,0.188c0.002-0.172,0.037-0.299,0.128-0.36
								c0.087-0.061,0.219-0.049,0.379,0.013c-0.078-0.152-0.104-0.281-0.056-0.377c0.051-0.095,0.174-0.146,0.345-0.166
								c-0.141-0.099-0.228-0.2-0.225-0.308c-0.001-0.108,0.084-0.209,0.227-0.306c-0.171-0.021-0.291-0.072-0.342-0.167
								c-0.05-0.095-0.022-0.225,0.057-0.377c-0.161,0.06-0.291,0.072-0.38,0.011c-0.089-0.061-0.124-0.188-0.125-0.36
								c-0.111,0.128-0.224,0.199-0.33,0.185C126.029,83.092,125.938,82.998,125.858,82.845z M126.466,82.92
								c0.479-0.535,1.021-2.209,1.569-4.104C127.182,80.593,126.468,82.202,126.466,82.92z M128.035,78.816
								c0.06-0.122,0.121-0.246,0.179-0.37c-0.021-0.007-0.042-0.017-0.063-0.026C128.112,78.553,128.074,78.686,128.035,78.816z
								 M126.972,83.27c0.673-0.252,1.932-1.483,3.298-2.905C128.688,81.541,127.307,82.634,126.972,83.27z M130.27,80.365
								c0.1-0.075,0.202-0.15,0.305-0.225c-0.015-0.018-0.03-0.033-0.042-0.049C130.445,80.181,130.358,80.274,130.27,80.365z
								 M127.255,83.814c0.713,0.088,2.399-0.417,4.271-1.041C129.578,83.081,127.848,83.406,127.255,83.814z M131.526,82.774
								c0.11-0.016,0.225-0.034,0.337-0.052c-0.005-0.019-0.009-0.038-0.014-0.057C131.742,82.701,131.632,82.738,131.526,82.774z
								 M127.253,84.427c0.591,0.412,2.318,0.747,4.263,1.063C129.65,84.857,127.967,84.342,127.253,84.427z M131.516,85.49
								c0.095,0.033,0.19,0.067,0.285,0.098c0.005-0.017,0.009-0.033,0.013-0.05C131.716,85.523,131.614,85.507,131.516,85.49z
								 M126.965,84.97c0.332,0.637,1.708,1.738,3.282,2.924C128.889,86.464,127.638,85.226,126.965,84.97z M130.248,87.892
								c0.059,0.062,0.119,0.126,0.178,0.189c0.01-0.012,0.02-0.021,0.031-0.032C130.387,87.997,130.315,87.944,130.248,87.892z
								 M126.461,85.317c-0.003,0.719,0.702,2.331,1.547,4.113C127.468,87.533,126.937,85.855,126.461,85.317z M128.008,89.431
								c0.021,0.075,0.043,0.152,0.063,0.229c0.015-0.006,0.026-0.01,0.039-0.014C128.076,89.574,128.041,89.5,128.008,89.431z
								 M125.851,85.389c-0.336,0.637-0.461,2.39-0.542,4.361C125.713,87.82,126.022,86.087,125.851,85.389z M125.309,89.75
								c-0.017,0.075-0.031,0.151-0.047,0.228c0.014,0.003,0.024,0.003,0.039,0.005C125.303,89.906,125.307,89.826,125.309,89.75z
								 M125.279,85.169c-0.596,0.407-1.521,1.904-2.508,3.61C124.026,87.259,125.105,85.867,125.279,85.169z M122.771,88.779
								c-0.052,0.063-0.107,0.13-0.161,0.193c0.013,0.008,0.024,0.014,0.037,0.024C122.688,88.924,122.731,88.851,122.771,88.779z
								 M124.874,84.71c-0.716,0.083-2.23,0.978-3.897,2.029C122.795,85.977,124.395,85.248,124.874,84.71z M120.977,86.741
								c-0.087,0.036-0.175,0.072-0.263,0.11c0.006,0.013,0.014,0.027,0.023,0.04C120.817,86.842,120.897,86.791,120.977,86.741z
								 M124.729,84.113c-0.672-0.257-2.43-0.168-4.396-0.011C122.298,84.27,124.055,84.367,124.729,84.113z M120.333,84.102
								c-0.106-0.01-0.217-0.02-0.322-0.029c-0.001,0.019-0.003,0.038-0.001,0.056C120.119,84.119,120.228,84.11,120.333,84.102z
								 M124.876,83.519c-0.474-0.539-2.069-1.277-3.882-2.051C122.653,82.528,124.163,83.432,124.876,83.519z M120.994,81.468
								c-0.104-0.067-0.21-0.134-0.315-0.201c-0.009,0.019-0.019,0.038-0.028,0.055C120.766,81.371,120.883,81.419,120.994,81.468z
								 M125.284,83.061c-0.169-0.698-1.241-2.094-2.485-3.623C123.775,81.15,124.692,82.651,125.284,83.061z M122.799,79.438
								c-0.067-0.115-0.133-0.232-0.198-0.349c-0.019,0.013-0.039,0.026-0.057,0.039C122.629,79.231,122.716,79.335,122.799,79.438z
								"/>
							
								<radialGradient id="SvgjsPath5393_1_" cx="-197.6135" cy="270.085" r="59.7561" gradientTransform="matrix(0.2973 0.0027 0.0033 -0.2973 183.7837 164.8495)" gradientUnits="userSpaceOnUse">
								<stop  offset="0" style="stop-color:#FFFFFF"/>
								<stop  offset="1" style="stop-color:#FFFFFF;stop-opacity:0"/>
							</radialGradient>
							<path id="SvgjsPath5393" opacity="0.4" fill="url(#SvgjsPath5393_1_)" enable-background="new    " d="M126.886,78.086
								c-0.024-0.003-0.047-0.007-0.07-0.01c-0.008,0.138-0.016,0.277-0.024,0.414C126.821,78.356,126.854,78.22,126.886,78.086z
								 M126.791,78.489c-0.443,1.922-0.787,3.649-0.63,4.35C126.511,82.211,126.671,80.459,126.791,78.489z M126.161,82.839
								c-0.084,0.15-0.177,0.243-0.283,0.254c-0.106,0.01-0.216-0.064-0.327-0.195c-0.004,0.171-0.042,0.297-0.133,0.356
								c-0.09,0.059-0.221,0.045-0.38-0.021c0.075,0.155,0.101,0.285,0.049,0.378c-0.054,0.094-0.176,0.142-0.346,0.158
								c0.138,0.101,0.22,0.204,0.217,0.312c-0.002,0.107-0.089,0.207-0.23,0.302c0.17,0.024,0.289,0.079,0.337,0.174
								c0.048,0.096,0.018,0.225-0.064,0.375c0.162-0.057,0.293-0.065,0.38-0.002s0.12,0.19,0.115,0.363
								c0.117-0.125,0.229-0.196,0.337-0.179c0.105,0.014,0.194,0.113,0.27,0.268c0.046-0.167,0.113-0.279,0.216-0.315
								c0.101-0.036,0.226,0.01,0.363,0.111c-0.035-0.167-0.028-0.299,0.045-0.378c0.072-0.079,0.204-0.096,0.375-0.072
								c-0.11-0.132-0.168-0.251-0.138-0.355c0.027-0.104,0.136-0.18,0.299-0.237c-0.159-0.064-0.263-0.145-0.288-0.25
								c-0.022-0.105,0.038-0.223,0.154-0.349c-0.172,0.016-0.302-0.006-0.37-0.088c-0.07-0.082-0.072-0.214-0.027-0.379
								c-0.143,0.094-0.269,0.134-0.368,0.093C126.262,83.122,126.198,83.007,126.161,82.839z M126.729,83.07
								c0.601-0.394,1.557-1.871,2.578-3.558C128.022,81.007,126.916,82.375,126.729,83.07z M129.307,79.511
								c0.089-0.102,0.18-0.206,0.269-0.311c-0.02-0.013-0.037-0.028-0.056-0.042C129.449,79.277,129.378,79.396,129.307,79.511z
								 M127.127,83.538c0.715-0.07,2.249-0.934,3.937-1.953C129.231,82.312,127.614,83.01,127.127,83.538z M131.063,81.584
								c0.116-0.046,0.234-0.092,0.354-0.138c-0.01-0.021-0.021-0.04-0.028-0.059C131.281,81.453,131.173,81.52,131.063,81.584z
								 M127.259,84.137c0.666,0.27,2.426,0.218,4.396,0.101C129.692,84.03,127.938,83.896,127.259,84.137z M131.654,84.237
								c0.111,0.013,0.226,0.025,0.339,0.037c0.001-0.02,0.001-0.039,0.002-0.058C131.882,84.223,131.766,84.23,131.654,84.237z
								 M127.1,84.729c0.463,0.551,2.046,1.321,3.842,2.129C129.303,85.763,127.811,84.831,127.1,84.729z M130.941,86.858
								c0.082,0.057,0.167,0.114,0.25,0.168c0.009-0.015,0.018-0.03,0.024-0.045C131.126,86.942,131.032,86.9,130.941,86.858z
								 M126.681,85.179c0.155,0.701,1.199,2.12,2.413,3.674C128.151,87.119,127.265,85.599,126.681,85.179z M129.095,88.85
								c0.041,0.075,0.082,0.153,0.124,0.229c0.012-0.009,0.023-0.016,0.037-0.024C129.202,88.987,129.146,88.917,129.095,88.85z
								 M126.103,85.383c-0.188,0.693,0.076,2.433,0.43,4.373C126.502,87.784,126.424,86.026,126.103,85.383z M126.532,89.756
								c0.001,0.078,0.003,0.158,0.003,0.238c0.015-0.002,0.026-0.004,0.04-0.004C126.562,89.913,126.547,89.833,126.532,89.756z
								 M125.495,85.294c-0.489,0.528-1.064,2.189-1.652,4.072C124.733,87.607,125.48,86.013,125.495,85.294z M123.843,89.366
								c-0.035,0.068-0.069,0.138-0.104,0.208c0.012,0.006,0.022,0.009,0.035,0.015C123.797,89.516,123.821,89.439,123.843,89.366z
								 M125,84.934c-0.68,0.239-1.961,1.446-3.356,2.838C123.25,86.628,124.652,85.563,125,84.934z M121.644,87.772
								c-0.067,0.047-0.138,0.098-0.205,0.145c0.01,0.011,0.02,0.02,0.029,0.032C121.525,87.89,121.586,87.832,121.644,87.772z
								 M124.728,84.385c-0.713-0.104-2.406,0.368-4.29,0.952C122.392,85.071,124.126,84.781,124.728,84.385z M120.438,85.339
								c-0.093,0.013-0.188,0.024-0.283,0.039c0.004,0.015,0.008,0.03,0.013,0.044C120.258,85.396,120.348,85.366,120.438,85.339z
								 M124.741,83.772c-0.582-0.423-2.303-0.792-4.242-1.149C122.353,83.294,124.025,83.843,124.741,83.772z M120.499,82.623
								c-0.101-0.037-0.205-0.075-0.305-0.112c-0.006,0.019-0.011,0.037-0.015,0.054C120.287,82.584,120.395,82.604,120.499,82.623z
								 M125.038,83.235c-0.318-0.643-1.669-1.769-3.22-2.986C123.147,81.704,124.372,82.968,125.038,83.235z M121.818,80.25
								c-0.083-0.091-0.167-0.183-0.251-0.275c-0.015,0.016-0.028,0.031-0.043,0.046C121.623,80.097,121.724,80.173,121.818,80.25z
								 M125.551,82.899c0.017-0.718-0.656-2.344-1.464-4.142C124.588,80.663,125.085,82.35,125.551,82.899z M124.087,78.757
								c-0.034-0.128-0.067-0.259-0.102-0.389c-0.021,0.007-0.043,0.015-0.063,0.023C123.977,78.513,124.033,78.636,124.087,78.757z
								"/>
							<path id="SvgjsPath5397" fill="#7085B3" d="M128.354,84c0,1.3-1.054,2.353-2.353,2.353c-1.3,0-2.354-1.053-2.354-2.353
								c0-1.299,1.055-2.354,2.354-2.354C127.302,81.646,128.354,82.7,128.354,84z"/>
							<path id="SvgjsPath5398" opacity="0.9" enable-background="new    " d="M128.354,84c0,1.3-1.054,2.353-2.353,2.353
								c-1.3,0-2.354-1.053-2.354-2.353c0-1.299,1.055-2.354,2.354-2.354C127.302,81.646,128.354,82.7,128.354,84z"/>
							
								<linearGradient id="SvgjsPath5399_1_" gradientUnits="userSpaceOnUse" x1="38.9851" y1="189.3558" x2="39.9206" y2="190.4713" gradientTransform="matrix(3 0 0 -3 5.7166 656.3359)">
								<stop  offset="0" style="stop-color:#FFFFFF"/>
								<stop  offset="1" style="stop-color:#FFFFFF;stop-opacity:0"/>
							</linearGradient>
							<path id="SvgjsPath5399" opacity="0.5" fill="url(#SvgjsPath5399_1_)" enable-background="new    " d="M122.718,86.748
								c0.448-0.302,1.059-0.18,1.359,0.268c0.302,0.449,0.183,1.059-0.268,1.36c-0.45,0.303-1.059,0.183-1.359-0.267
								C122.148,87.66,122.268,87.049,122.718,86.748L122.718,86.748z"/>
							
								<linearGradient id="SvgjsPath5403_1_" gradientUnits="userSpaceOnUse" x1="40.4983" y1="191.3467" x2="39.7488" y2="190.4531" gradientTransform="matrix(3 0 0 -3 5.7166 656.3359)">
								<stop  offset="0" style="stop-color:#FFFFFF"/>
								<stop  offset="1" style="stop-color:#FFFFFF;stop-opacity:0"/>
							</linearGradient>
							<path id="SvgjsPath5403" opacity="0.5" fill="url(#SvgjsPath5403_1_)" enable-background="new    " d="M127.859,83.672
								c-0.251,0.374-0.969,0.331-1.605-0.096c-0.638-0.427-0.95-1.078-0.7-1.451l0.001-0.001c0.25-0.374,0.969-0.331,1.605,0.097
								C127.798,82.647,128.11,83.297,127.859,83.672L127.859,83.672z"/>
							
								<linearGradient id="SvgjsPath5407_1_" gradientUnits="userSpaceOnUse" x1="41.3066" y1="192.1712" x2="39.5806" y2="190.1142" gradientTransform="matrix(3 0 0 -3 5.7166 656.3359)">
								<stop  offset="0" style="stop-color:#FFFFFF"/>
								<stop  offset="1" style="stop-color:#FFFFFF;stop-opacity:0"/>
							</linearGradient>
							<path id="SvgjsPath5407" opacity="0.75" fill="url(#SvgjsPath5407_1_)" enable-background="new    " d="M130.717,82.673
								c-0.569,0.873-2.036,0.925-3.276,0.117c-1.239-0.808-1.784-2.17-1.215-3.043c0.568-0.872,2.035-0.924,3.275-0.117
								C130.74,80.439,131.284,81.802,130.717,82.673L130.717,82.673z"/>
						</g>
					</g>
				</g>
				<g id="svga-group-eyesfront-right">
					<path id="SvgjsPath5305" fill="#FFD0BC" d="M125.197,61.277c-10.211,0.356-20.857,6.97-20.685,23.737
						c0.154,15,12.079,22.595,22.29,22.238c10.21-0.356,16.187-17.323,17.685-23.669C148.517,66.512,135.407,60.921,125.197,61.277z
						 M128.399,89.719c-4.835,0.619-9.423-0.261-14.194-0.87c-1.339-0.618-2.41-1.43-2.154-2.438c0.006-0.027,0.02-0.053,0.025-0.08
						c0.006-0.004,0.014-0.003,0.018-0.008c2.843-4.452,6.188-7.261,10.773-7.94c3.465-0.516,8.195-0.089,10.318,0.329
						c1.811,0.357,3.824,0.694,5.851,1.905c0.014,1.055-0.059,1.372-0.312,2.473C138.255,84.21,138.08,88.478,128.399,89.719z"/>
					
						<radialGradient id="SvgjsPath5306_1_" cx="41.873" cy="222.7246" r="17.0415" fx="55.3105" fy="221.6433" gradientTransform="matrix(-2.9652 0.4101 0.4008 2.2062 157.7494 -426.2752)" gradientUnits="userSpaceOnUse">
						<stop  offset="0" style="stop-color:#F0B399"/>
						<stop  offset="0.7" style="stop-color:#F0B399;stop-opacity:0.3"/>
						<stop  offset="1" style="stop-color:#FFD0BC;stop-opacity:0"/>
					</radialGradient>
					<path id="SvgjsPath5306" fill="url(#SvgjsPath5306_1_)" d="M139.703,80.234c-1.34-6.85-9.928-11.261-19.186-9.862
						c-9.257,1.403-15.669,8.091-14.328,14.94c1.339,6.849,9.93,11.26,19.186,9.859C134.633,93.766,141.043,87.082,139.703,80.234z
						 M138.725,83.09c-0.47,1.121-0.645,5.388-10.325,6.629c-4.835,0.619-9.423-0.261-14.194-0.87
						c-1.339-0.618-2.41-1.43-2.154-2.438c0.006-0.027,0.02-0.053,0.025-0.08c0.006-0.004,0.014-0.003,0.018-0.008
						c2.843-4.452,6.188-7.261,10.773-7.94c3.465-0.516,8.195-0.089,10.318,0.329c1.811,0.357,3.727,0.764,5.851,1.905
						C139.05,81.672,138.978,81.989,138.725,83.09z"/>
					
						<radialGradient id="SvgjsPath5311_1_" cx="22.7056" cy="183.5033" r="26.2368" gradientTransform="matrix(-2.1549 -0.18 0.2409 -1.8429 132.2952 436.6328)" gradientUnits="userSpaceOnUse">
						<stop  offset="0.95" style="stop-color:#000000;stop-opacity:0"/>
						<stop  offset="1" style="stop-color:#000000;stop-opacity:0.2"/>
					</radialGradient>
					<path id="SvgjsPath5311" fill="url(#SvgjsPath5311_1_)" d="M138.725,83.09c0.253-1.101,0.325-1.417,0.312-2.473
						c-2.092-1.175-4.04-1.547-5.851-1.905c-2.123-0.418-6.854-0.845-10.318-0.329c-4.586,0.679-7.931,3.488-10.773,7.94
						c-0.004,0.005-0.012,0.004-0.018,0.008c-0.006,0.027-0.02,0.053-0.025,0.08c-0.256,1.007,0.815,1.819,2.154,2.438
						c4.771,0.609,9.359,1.489,14.194,0.87C138.08,88.478,138.255,84.21,138.725,83.09z"/>
					<path id="SvgjsPath5315" fill="#D17F5B" d="M123.273,75.748c-3.295,0.539-6.506,2.054-9.48,3.945
						c-0.637,0.404-1.367,0.865-2.521,1.451c0.828-0.188,1.594-0.617,2.309-1.011c-0.736,0.698-1.422,1.529-1.982,2.334
						c2.521-3.159,7.297-5.538,11.359-6.349c3.902-0.779,10.989-0.264,16.252,2.042C134.391,75.449,127.362,75.08,123.273,75.748z"
						/>
					<path id="SvgjsPath5316" fill="#2A150E" d="M133.314,77.563c1.672,0.405,5.119,1.761,5.994,2.928
						c0.205,1.132-1.094,0.052-1.402-0.117c-3.764-2.064-10.201-2.548-15.033-1.843c-4.588,0.665-7.936,3.407-10.781,7.747
						C111.018,87.854,114.57,73.019,133.314,77.563z M128.395,89.57c-4.844,0.61-9.439-0.25-14.219-0.839
						c-1.134-0.137,8.038,2.215,14.633,1.613c9.284-0.849,10.861-5.44,10.145-7.503C138.131,83.023,139.376,88.19,128.395,89.57z"/>
				</g>
			</g>
			<g id="svga-group-facehighlight-single">
				
					<radialGradient id="SvgjsPath4855_1_" cx="31.1777" cy="180.779" r="41.0002" gradientTransform="matrix(3 0 0 -3 6.4666 656.3359)" gradientUnits="userSpaceOnUse">
					<stop  offset="0" style="stop-color:#FFE2D6;stop-opacity:0.5"/>
					<stop  offset="0.9" style="stop-color:#FFD0BC;stop-opacity:0"/>
				</radialGradient>
				<path id="SvgjsPath4855" fill="url(#SvgjsPath4855_1_)" d="M141,113.974c0.035,22.622-18.292,40.994-40.938,41.025
					c-22.642,0.037-41.028-18.273-41.063-40.9c-0.035-22.62,18.292-41.064,40.937-41.1C122.579,72.964,140.967,91.349,141,113.974z"
					/>
				
					<radialGradient id="SvgjsPath4859_1_" cx="31.1778" cy="200.779" r="37" gradientTransform="matrix(3 0 0 -3 6.4666 656.3359)" gradientUnits="userSpaceOnUse">
					<stop  offset="0" style="stop-color:#FFE2D6;stop-opacity:0.5"/>
					<stop  offset="0.9" style="stop-color:#FFD0BC;stop-opacity:0"/>
				</radialGradient>
				<path id="SvgjsPath4859" fill="url(#SvgjsPath4859_1_)" d="M137.5,53.999c0,20.711-16.789,37.5-37.499,37.5
					c-20.711,0-37.501-16.789-37.501-37.5s16.79-37.5,37.501-37.5C120.711,16.499,137.5,33.288,137.5,53.999z"/>
			</g>
			<g id="svga-group-eyebrows-left">
				<path id="SvgjsPath5317" fill="#504543" d="M52.488,73.87c7.475-9.383,20.338-7.822,30.878-6.314
					c2.681,0.384,5.441,0.672,8.07,1.336c1.884,0.475,3.365,2.622,1.851,4.356c-0.708,0.825-2.253,0.672-3.207,0.652
					C77.459,73.645,63.193,66.387,52.488,73.87z"/>
			</g>
			<g id="svga-group-eyebrows-right">
				<path id="SvgjsPath5318" fill="#504543" d="M147.577,73.49c-2.164-1.448-4.454-2.47-7.043-2.889
					c-9.497-1.54-27.586,4.79-32.341,3.45c-2.912-0.822-2.323-3.739-1.035-4.458c0.775-0.433,0.99-0.422,7.909-1.612
					C126.824,65.961,139.988,64.355,147.577,73.49z"/>
			</g>
			<g id="svga-group-nose-single">
				<path id="SvgjsPath5140" fill="#D17F5B" d="M105.07,117.886c1.053,0,1.338,0.28,1.338,0.625c0,0.347-0.328,0.879-1.338,0.624
					c-1.109-0.276-3.046-0.148-3.046-0.148S104.018,117.886,105.07,117.886z M95.017,117.886c-1.054,0.001-1.337,0.282-1.337,0.628
					c-0.001,0.345,0.317,0.842,1.337,0.624c1.125-0.241,3.046-0.149,3.046-0.149S96.071,117.89,95.017,117.886z M108.609,114.148
					c0,0,1.458,1.654,1.154,3.403c-0.294,1.699-3.238,2.447-3.238,2.447s2.044-1.297,2.292-2.873
					C108.933,116.39,108.609,114.148,108.609,114.148z M90.617,112.446c0,0-1.063,2.316-0.755,3.727
					c0.558,2.547,3.625,3.565,3.625,3.565s-1.914-1.747-2.594-3.291C90.149,114.763,90.617,112.446,90.617,112.446z"/>
				<path id="SvgjsPath5141" fill="#FFE2D6" d="M105.019,115.38c1.021-0.761,1.124-1.195,0.912-1.479
					c-0.21-0.284-0.823-0.464-1.678,0.453c-0.942,1.012-2.991,1.758-2.991,1.758S103.997,116.143,105.019,115.38z"/>
			</g>
			<g id="svga-group-beardwrap">
				<g id="svga-group-beard-single">
					<path id="SvgjsPath4873" fill="#2A232B" d="M100,18.13L100,18.13L100,18.13L100,18.13z"/>
				</g>
			</g>
			<g id="svga-group-mustache-single">
				<path id="SvgjsPath5241" fill="#2A232B" d="M100,18.13L100,18.13L100,18.13L100,18.13z"/>
			</g>
			<g id="svga-group-hair-front">
				<path id="SvgjsPath5253" fill="#504543" d="M152.176,96.021c-4.33-11.451-2.396-20.042-3.227-37.21
					c-1.283-26.428-7.483-23.179-21.749-24.214C105.156,33,97.497,22.794,81.063,22.794c-8.887,0-19.24,4.048-27.173,11.001
					c-6.378,43.485,2.638,39.87-6.744,61.845c-5.953-6.247-6.721-15.865-11.134-28.495c-3.519-10.451-2.658-11.011-6.527-16.049
					c2.484,0.449,2.734,0.429,3.842,0.429c-1.97-4.306-4.479-11.951-5.429-15.273c2.329-1.116,4.839-3.909,6.47-5.919
					c-0.931-2.128-1.646-4.554-2.079-6.625c0.077-0.026,0.438-0.16,0.438-0.16l0.004-0.017c5.681-2.417,6.84-15.944,10.785-19.389
					c1.941-1.814,3.806-2.531,5.534-3.446c0.204-1.895,0.295-2.277,0.575-3.63c9.402-2.521,12.254-1.199,25.53-4.893
					c4.564-1.27,7.709-2.153,17.317-1.75c3.525,1.779,16.06,10.479,25.484,1.602C125.21-3.448,131.53-2.87,140.58,2.277
					c15.179,8.89,17.244,15.147,16.352,29.56c10.493,13.965,8.167,30.567,3.577,47.23C157.639,89.383,154.886,92.761,152.176,96.021
					z"/>
				<path id="SvgjsPath5254" fill="#31221F" d="M152,82c-1-8,3-15,4-22c-1,2-3,3-3,5c0-7,3-13,2-20c-1,2-2,3-4,4c3-7,0-15-5-21
					c1,3,2,5,2,8c-6-9-20-10-30-15c2,3,6,5,9,7c-14-5-27-11-40-17c2.206,2.206,3.875,6.024,6.589,7.499c1.143,0.163,0.978,0.531,0,0
					C81.581,16.79,68.958,15.479,58,10c0,4,3,7,6,9c-3,0-6-3-8-2c-3,2,3,4,2,6c-3,2-6-1-9-1c2,3,0,8,2,11c-2-1-4-3-4-2c-1,4-3,5-3,8
					c0,5,3,10,3,15c0-1.608-1.938-1.279-2.697-2.127c5.009,13.975,4.782,28.692,2.606,43.497c0.082,0.089,0.154,0.184,0.237,0.271
					c9.382-21.975,0.366-18.36,6.744-61.845c7.933-6.953,18.286-11.001,27.173-11.001c16.435,0,24.094,10.207,46.138,11.802
					c14.266,1.036,20.466-2.214,21.749,24.214c0.83,17.168-1.104,25.759,3.227,37.21c0.005-0.005,0.009-0.011,0.014-0.016
					C152.841,88.595,155,81.796,155,75C154,77,153,79,152,82z"/>
				<path id="SvgjsPath5255" fill="#413230" d="M159.263,71.488C158.954,72.145,157,72.343,157,73c0-3,3.516-5.243,2.924-10.264
					c0,0.396-3.158,2.95-3.475,3.346c-0.206,1,4.288-10.681,4.288-14.542C159.263,53.999,158,54,158,56
					c0-4-0.006-9.854-0.006-13.854c0,2-1.994,4.949-1.994,6.949c0.933-7.464-3.404-16.095-4.28-23.501
					c-0.511,1.795-1.479,3.889-0.72,5.406c-3-4-2-11-7-14c-1,2-1,4-2,6c-3-4-7-7-9-11c0,2,0,3,0,5c-5-4-12-6-15-12c0,2,0,5,0,7
					c-4-1-10.495-4.596-12.495-7.596C105.505,7.404,109,12,109,15c-8-4-14-10-22-14c0,2,2,4,1,6c-4-2-11.771-2-13.771-6
					c0,3,3.11,6,3.11,9c-9-1-11.009-3.822-19.242-7.596C57.097,4.404,56,7,55,9c-2-2-3-4-6-4c0,3,3,7,1,10c-1,1-5-3-5-2
					c-2,4,0,10-2,14c0,1-3-2-5-1c3.872,5.807,1.202,12.548,3.745,18.416C41.843,44.598,41.93,44.79,42,45
					c-0.096-0.193-0.17-0.389-0.255-0.584C40.452,41.988,36.93,41.79,36,39c0,7.303,4.157,13.774,5.645,20.932
					C42.15,60.233,42.404,60.788,42,62c-0.087-0.697-0.214-1.385-0.355-2.068C40.897,59.486,39.596,59.596,39,59
					c4.728,9.455,6.191,25.673,7.909,36.369c3.545-15.374,1.709-31.456-2.606-43.497C44.118,51.666,44,51.392,44,51
					c0.109,0.29,0.198,0.582,0.303,0.873C45.063,52.721,47,52.392,47,54c0-5-3-10-3-15c0-3,2-4,3-8c0-1,2,1,4,2c-2-3,0-8-2-11
					c3,0,6,3,9,1c1-2-5-4-2-6c2-1,5,2,8,2c-3-2-6-5-6-9c10.958,5.479,23.581,6.79,35.589,8.499C90.875,17.024,89.206,13.206,87,11
					c13,6,26,12,40,17c-3-2-7-4-9-7c10,5,24,6,30,15c0-3-1-5-2-8c5,6,8,14,5,21c2-1,3-2,4-4c1,7-2,13-2,20c0-2,2-3,3-5
					c-1,7-5,14-4,22c1-3,2-5,3-7c0,6.796-2.159,13.595-2.811,21.004c0.814-0.979,1.633-1.975,2.457-3.163
					C154.545,85.429,157.479,79.338,159.263,71.488z"/>
				<path id="SvgjsPath5256" fill="#504543" d="M93.119,18.235c-1.128,0.089-2.468,0.279-4.94-0.096
					c-6.698-0.927-28.617-1.793-29.81-8.654c1.055,3.353,7.405,4.299,12.204,5.198c0,0,3.382,0.651,8.723,1.251
					C89.291,17.101,87.179,17.888,93.119,18.235z M115.897,23.746C92,13.389,93.7,14.531,88.119,10.985
					c7.333,6.156,9.839,6.172,22.619,12.018c5.921,2.667,7.078,2.561,15.131,4.482C120.224,25.241,119.559,25.287,115.897,23.746z
					 M118.619,20.735c9.914,8.153,22.008,6.125,29.75,15C142.164,25.918,128.518,26.908,118.619,20.735z M59.905,17.331
					c-2.668-0.805-3.997-0.43-5.286,0.404c4.225-1.989,8.651,2.923,13.75,1.5C66.006,19.523,59.905,17.53,59.905,17.331z
					 M57.051,23.932c-2.328-0.734-5.203-1.979-7.151-1.927c-1.03,0.024-1.281,0.48-1.281,0.48c0.975-1.139,5.609,1.099,8.396,1.626
					c0.766,0.16,1.354,0.123,1.354,0.123S57.783,24.176,57.051,23.932z M45.652,35.678c0.687-1.892,1.461-3.751,1.256-5.482
					c-0.104-0.627-0.309-0.955-0.289-0.96c0.464,1.973-0.313,3.175-1.68,6.136c-3.015,6.453,0.924,11.484,2.43,18.364
					C46.86,45.866,43.166,42.389,45.652,35.678z M154.369,45.985c0.32,2.168,0.225,3.63-0.154,7.075c0,0-0.695,5.779-2.096,11.425
					C154.198,59.638,155.94,51.389,154.369,45.985z M155.869,61.485c-3.387,9.387-3.936,12.846-4.5,20.25
					C155.099,64.497,153.284,73.154,155.869,61.485z"/>
				<path id="SvgjsPath5257" fill="#5F5A59" d="M114.869-1.765c-6.126,0.965-12.52,1.734-24-5.25
					C101.949-1.999,107.334-1.517,114.869-1.765z M128.401,0.19c-6.076-2.194-6.475-4.768-11.032-6.205
					c4.159,1.884,4.127,4.303,9.559,6.761c2.642,1.249,11.822,3.782,17.441,7.439C139.405,3.794,136.066,3.059,128.401,0.19z
					 M60.619-2.015c11.593,0.241,13.441-2.719,26.75-4.25C75.403-6.414,74.136-3.561,60.619-2.015z M90.869-1.765
					c4.669,0.559,11.405,4.746,13.5,9.5C102.84,2.405,96.201-1.735,90.869-1.765z M116.869-0.265c4.652,2.475,6.308,7.699,12,8.75
					C123.284,6.637,122.178,1.803,116.869-0.265z M108.869,0.735c1.193,2.033,2.93,4.107,7.5,7
					C111.036,3.353,110.121,2.431,108.869,0.735z M132.119,5.485c5.115,0.627,10.451,5.663,11,11.25
					C143.375,11.229,138.428,5.581,132.119,5.485z M149.458,14.007c-2.307-2.946-4.339-3.642-5.339-4.022
					c1.428,0.741,2.997,1.725,4.866,4.386c0,0,3.437,4.57,4.884,9.614C152.871,17.907,149.458,14.007,149.458,14.007z M54.369-0.265
					c0.185-0.391,5.324,1.866,5.73,2.03c1.229,0.479,7.383,2.967,9.52,3.22C68.618,4.717,54.423-1.414,54.369-0.265z M45.869,5.985
					c0.682,0.896,1.458,2.263,2.01,3.245c0,0,0.296,0.523,0.571,1.059c0.27,0.537,0.51,1.086,0.51,1.086
					C49.634,12.912,49.955,13.861,50,15C50.252,12.019,47.702,7.872,45.869,5.985z M42.869,8.985c-2.517,6.149-2.489,9.708,0,16
					C41.306,18.681,40.986,15.697,42.869,8.985z"/>
				<path id="SvgjsPath5258" fill="#221512" d="M157.239,31.745c0.228-3.5,0.323-5.684,0.02-9.14
					c-1.138-10.129-7.217-15.136-16.529-20.59c-9.158-5.208-15.513-5.751-22.811-10.37c-9.334,9.042-21.935,0.184-25.37-1.52
					c-16.776-0.716-14.191,2.518-32.75,4.78c-6.844,0.773-9.67,1.72-9.67,1.72c-0.26,0.07-0.52,0.13-0.76,0.2
					c-0.2,1-0.381,1.616-0.6,3.68c-1.516,0.801-3.484,1.572-5.45,3.41c-4.048,3.536-5.212,17.195-10.83,19.39v0.01
					c-0.118,0.043-0.428,0.163-0.55,0.18c0.419,2.096,1.188,4.75,2.08,6.79c-1.594,1.959-4.17,4.807-6.48,5.8
					c0.546,1.98,3.313,10.751,5.32,15.14c-1.1,0-2.003-0.194-4.09-0.56c4.388,5.578,3.281,5.653,6.96,16.58
					c4.481,12.826,5.208,22.595,11.49,28.9c5.633-10.646,5.146-15.583,5.19-19.41c0.123-5.265-2.433-18.462,1.935-42.798
					c9.262-8.105,22.378-12.754,34.815-9.932c13.001,2.94,19.525,9.551,38.02,10.89c14.399,1.046,20.201-2.213,21.471,23.93
					c0.841,17.373-1.163,26.023,3.43,37.78c2.669-3.22,5.645-6.408,8.72-17.46C165.299,62.807,167.816,45.939,157.239,31.745z
					 M161.02,70.726c-3.468,16.597-5.491,19.609-9.061,24.96c-2.882-8.88-2.093-17.47-1.8-26.59
					c1.486-39.246-8.424-34.825-22.86-35.92c-17.688-1.192-24.622-7.896-37.76-10.54c-11.972-2.45-25.25,0.755-36.35,11.16
					c-6.045,27.128,0.578,41.608-4.78,55.37c-1.162,2.943-0.429,3.694-1.28,5.84c-4.636-6.978-5.874-16.832-7.41-21.79
					c-4.784-12.176-4.632-16.171-9.84-21.97c1.271,0.277,2.91,0.457,4.21,0.24c-0.01-0.01-0.01-0.01-0.01-0.02
					c-0.332-1.001-4.524-12.47-5.75-15.33c2.387-1.152,4.729-3.746,6.35-5.83c-1.292-4.088,0.314,1.902-2.1-6.66
					c7.366-2.215,6.6-16.125,14.11-21.21c0.997-0.665,1.88-1.213,2.86-1.83c0.221-1.879,0.071-0.771,0.52-3.63
					c8.803-1.813,12.4-0.024,25.18-4.05c9.681-2.356,16.636-2.269,17.64-2.16c6.167,3.862,9.656,6.038,16.91,5.53
					c3.323-0.272,5.966-1.878,8.28-4.24c4.01,3.008,8.485,4.831,13.99,7.35c22.244,10.181,24.229,18.459,24.229,32.18
					c1.398,1.975,2.938,5.099,3.7,7.19C164.593,50.117,163.096,61.037,161.02,70.726z"/>
			</g>
			<g id="svga-group-glasses-single">
				<path id="SvgjsPath5442" fill="#26120B" d="M100,18.13L100,18.13L100,18.13L100,18.13z"/>
			</g>
		</g>
	</g>
	
		<rect id="SvgjsRect4840" x="0" y="185" display="none" opacity="0.5" fill="#ECF0F1" enable-background="new    " width="200" height="15"/>
</g>
</svg>
